<svg width = "400" height = "400">

<circle cx = "30" cy = "18" r = "3" style="fill: red; stroke: none; stroke - width:0; opacity: 0.1"/>
<line x1="30" y1="18" x2="96" y2="7" style="stroke: red; stroke - width:4" />
<circle cx = "36" cy = "30" r = "3" style="fill: red; stroke: none; stroke - width:0; opacity: 0.1"/>
<line x1="36" y1="30" x2="95" y2="10" style="stroke: red; stroke - width:4" />
<circle cx = "90" cy = "11" r = "3" style="fill: red; stroke: none; stroke - width:0; opacity: 0.1"/>
<line x1="90" y1="11" x2="188" y2="6" style="stroke: red; stroke - width:4" />
<circle cx = "110" cy = "39" r = "3" style="fill: red; stroke: none; stroke - width:0; opacity: 0.1"/>
<line x1="110" y1="39" x2="107" y2="77" style="stroke: red; stroke - width:4" />
<circle cx = "110" cy = "76" r = "3" style="fill: red; stroke: none; stroke - width:0; opacity: 0.1"/>
<line x1="110" y1="76" x2="132" y2="94" style="stroke: red; stroke - width:4" />
<circle cx = "114" cy = "90" r = "3" style="fill: red; stroke: none; stroke - width:0; opacity: 0.1"/>
<line x1="114" y1="90" x2="135" y2="156" style="stroke: red; stroke - width:4" />
<circle cx = "125" cy = "91" r = "3" style="fill: red; stroke: none; stroke - width:0; opacity: 0.1"/>
<line x1="125" y1="91" x2="163" y2="169" style="stroke: red; stroke - width:4" />
<circle cx = "111" cy = "155" r = "3" style="fill: red; stroke: none; stroke - width:0; opacity: 0.1"/>
<line x1="111" y1="155" x2="184" y2="90" style="stroke: red; stroke - width:4" />
<circle cx = "121" cy = "170" r = "3" style="fill: red; stroke: none; stroke - width:0; opacity: 0.1"/>
<line x1="121" y1="170" x2="230" y2="231" style="stroke: red; stroke - width:4" />
<circle cx = "229" cy = "230" r = "3" style="fill: red; stroke: none; stroke - width:0; opacity: 0.1"/>
<line x1="229" y1="230" x2="171" y2="145" style="stroke: red; stroke - width:4" />
<circle cx = "230" cy = "187" r = "3" style="fill: red; stroke: none; stroke - width:0; opacity: 0.1"/>
<line x1="230" y1="187" x2="183" y2="129" style="stroke: red; stroke - width:4" />
<circle cx = "230" cy = "162" r = "3" style="fill: red; stroke: none; stroke - width:0; opacity: 0.1"/>
<line x1="230" y1="162" x2="168" y2="137" style="stroke: red; stroke - width:4" />
<circle cx = "171" cy = "147" r = "3" style="fill: red; stroke: none; stroke - width:0; opacity: 0.1"/>
<line x1="171" y1="147" x2="199" y2="105" style="stroke: red; stroke - width:4" />
<circle cx = "179" cy = "131" r = "3" style="fill: red; stroke: none; stroke - width:0; opacity: 0.1"/>
<line x1="179" y1="131" x2="184" y2="79" style="stroke: red; stroke - width:4" />
<circle cx = "196" cy = "130" r = "3" style="fill: red; stroke: none; stroke - width:0; opacity: 0.1"/>
<line x1="196" y1="130" x2="185" y2="91" style="stroke: red; stroke - width:4" />
<circle cx = "200" cy = "124" r = "3" style="fill: red; stroke: none; stroke - width:0; opacity: 0.1"/>
<line x1="200" y1="124" x2="192" y2="88" style="stroke: red; stroke - width:4" />
<circle cx = "190" cy = "90" r = "3" style="fill: red; stroke: none; stroke - width:0; opacity: 0.1"/>
<line x1="190" y1="90" x2="234" y2="77" style="stroke: red; stroke - width:4" />
<circle cx = "173" cy = "92" r = "3" style="fill: red; stroke: none; stroke - width:0; opacity: 0.1"/>
<line x1="173" y1="92" x2="212" y2="11" style="stroke: red; stroke - width:4" />
<circle cx = "230" cy = "18" r = "3" style="fill: red; stroke: none; stroke - width:0; opacity: 0.1"/>
<line x1="230" y1="18" x2="167" y2="3" style="stroke: red; stroke - width:4" />
<circle cx = "228" cy = "12" r = "3" style="fill: red; stroke: none; stroke - width:0; opacity: 0.1"/>
<line x1="228" y1="12" x2="169" y2="25" style="stroke: red; stroke - width:4" />
<circle cx = "193" cy = "29" r = "3" style="fill: red; stroke: none; stroke - width:0; opacity: 0.1"/>
<line x1="193" y1="29" x2="149" y2="147" style="stroke: red; stroke - width:4" />
<circle cx = "169" cy = "47" r = "3" style="fill: red; stroke: none; stroke - width:0; opacity: 0.1"/>
<line x1="169" y1="47" x2="108" y2="38" style="stroke: red; stroke - width:4" />
<polyline points="30,18 36,30 90,11 110,39 110,76 114,90 125,91 111,155 121,170 229,230 230,187 230,162 171,147 179,131 196,130 200,124 190,90 173,92 230,18 228,12 193,29 169,47 " style="fill: none; stroke: black; stroke - width:3" />/n</svg>

